<svg xmlns="http://www.w3.org/2000/svg" width="634" height="82">
<rect fill="#93d75b" width="10" height="10" y="12" x="624"><title>2023-12-11: 17</title></rect>
<rect fill="#c6e48b" width="10" height="10" y="0" x="624"><title>2023-12-10: 2</title></rect>
<rect fill="#aede73" width="10" height="10" y="72" x="612"><title>2023-12-09: 11</title></rect>
<rect fill="#bfe283" width="10" height="10" y="60" x="612"><title>2023-12-08: 4</title></rect>
<rect fill="#bfe283" width="10" height="10" y="48" x="612"><title>2023-12-07: 4</title></rect>
<rect fill="#c6e48b" width="10" height="10" y="36" x="612"><title>2023-12-06: 1</title></rect>
<rect fill="#bfe283" width="10" height="10" y="24" x="612"><title>2023-12-05: 6</title></rect>
<rect fill="#c6e48b" width="10" height="10" y="12" x="612"><title>2023-12-04: 2</title></rect>
<rect fill="#c6e48b" width="10" height="10" y="0" x="612"><title>2023-12-03: 3</title></rect>
<rect fill="#ffaaaa" width="10" height="10" y="72" x="600"><title>2023-12-02: 0</title></rect>
<rect fill="#c6e48b" width="10" height="10" y="60" x="600"><title>2023-12-01: 2</title></rect>
<rect fill="#c6e48b" width="10" height="10" y="48" x="600"><title>2023-11-30: 2</title></rect>
<rect fill="#c6e48b" width="10" height="10" y="36" x="600"><title>2023-11-29: 2</title></rect>
<rect fill="#b7e07b" width="10" height="10" y="24" x="600"><title>2023-11-28: 8</title></rect>
<rect fill="#c6e48b" width="10" height="10" y="12" x="600"><title>2023-11-27: 3</title></rect>
<rect fill="#ffaaaa" width="10" height="10" y="0" x="600"><title>2023-11-26: 0</title></rect>
<rect fill="#c6e48b" width="10" height="10" y="72" x="588"><title>2023-11-25: 2</title></rect>
<rect fill="#ffaaaa" width="10" height="10" y="60" x="588"><title>2023-11-24: 0</title></rect>
<rect fill="#c6e48b" width="10" height="10" y="48" x="588"><title>2023-11-23: 1</title></rect>
<rect fill="#ffaaaa" width="10" height="10" y="36" x="588"><title>2023-11-22: 0</title></rect>
<rect fill="#c6e48b" width="10" height="10" y="24" x="588"><title>2023-11-21: 1</title></rect>
<rect fill="#c6e48b" width="10" height="10" y="12" x="588"><title>2023-11-20: 3</title></rect>
<rect fill="#ffaaaa" width="10" height="10" y="0" x="588"><title>2023-11-19: 0</title></rect>
<rect fill="#ffaaaa" width="10" height="10" y="72" x="576"><title>2023-11-18: 0</title></rect>
<rect fill="#bfe283" width="10" height="10" y="60" x="576"><title>2023-11-17: 4</title></rect>
<rect fill="#ffaaaa" width="10" height="10" y="48" x="576"><title>2023-11-16: 0</title></rect>
<rect fill="#b7e07b" width="10" height="10" y="36" x="576"><title>2023-11-15: 7</title></rect>
<rect fill="#c6e48b" width="10" height="10" y="24" x="576"><title>2023-11-14: 1</title></rect>
<rect fill="#c6e48b" width="10" height="10" y="12" x="576"><title>2023-11-13: 3</title></rect>
<rect fill="#ffaaaa" width="10" height="10" y="0" x="576"><title>2023-11-12: 0</title></rect>
<rect fill="#b7e07b" width="10" height="10" y="72" x="564"><title>2023-11-11: 7</title></rect>
<rect fill="#bfe283" width="10" height="10" y="60" x="564"><title>2023-11-10: 4</title></rect>
<rect fill="#c6e48b" width="10" height="10" y="48" x="564"><title>2023-11-09: 2</title></rect>
<rect fill="#b7e07b" width="10" height="10" y="36" x="564"><title>2023-11-08: 8</title></rect>
<rect fill="#ffaaaa" width="10" height="10" y="24" x="564"><title>2023-11-07: 0</title></rect>
<rect fill="#c6e48b" width="10" height="10" y="12" x="564"><title>2023-11-06: 3</title></rect>
<rect fill="#aede73" width="10" height="10" y="0" x="564"><title>2023-11-05: 11</title></rect>
<rect fill="#ffaaaa" width="10" height="10" y="72" x="552"><title>2023-11-04: 0</title></rect>
<rect fill="#ffaaaa" width="10" height="10" y="60" x="552"><title>2023-11-03: 0</title></rect>
<rect fill="#ffaaaa" width="10" height="10" y="48" x="552"><title>2023-11-02: 0</title></rect>
<rect fill="#bfe283" width="10" height="10" y="36" x="552"><title>2023-11-01: 4</title></rect>
<rect fill="#ffaaaa" width="10" height="10" y="24" x="552"><title>2023-10-31: 0</title></rect>
<rect fill="#ffaaaa" width="10" height="10" y="12" x="552"><title>2023-10-30: 0</title></rect>
<rect fill="#ffaaaa" width="10" height="10" y="0" x="552"><title>2023-10-29: 0</title></rect>
<rect fill="#ffaaaa" width="10" height="10" y="72" x="540"><title>2023-10-28: 0</title></rect>
<rect fill="#c6e48b" width="10" height="10" y="60" x="540"><title>2023-10-27: 1</title></rect>
<rect fill="#bfe283" width="10" height="10" y="48" x="540"><title>2023-10-26: 5</title></rect>
<rect fill="#bfe283" width="10" height="10" y="36" x="540"><title>2023-10-25: 6</title></rect>
<rect fill="#ffaaaa" width="10" height="10" y="24" x="540"><title>2023-10-24: 0</title></rect>
<rect fill="#ffaaaa" width="10" height="10" y="12" x="540"><title>2023-10-23: 0</title></rect>
<rect fill="#ffaaaa" width="10" height="10" y="0" x="540"><title>2023-10-22: 0</title></rect>
<rect fill="#ffaaaa" width="10" height="10" y="72" x="528"><title>2023-10-21: 0</title></rect>
<rect fill="#aede73" width="10" height="10" y="60" x="528"><title>2023-10-20: 9</title></rect>
<rect fill="#c6e48b" width="10" height="10" y="48" x="528"><title>2023-10-19: 3</title></rect>
<rect fill="#c6e48b" width="10" height="10" y="36" x="528"><title>2023-10-18: 1</title></rect>
<rect fill="#aede73" width="10" height="10" y="24" x="528"><title>2023-10-17: 9</title></rect>
<rect fill="#c6e48b" width="10" height="10" y="12" x="528"><title>2023-10-16: 1</title></rect>
<rect fill="#ffaaaa" width="10" height="10" y="0" x="528"><title>2023-10-15: 0</title></rect>
<rect fill="#c6e48b" width="10" height="10" y="72" x="516"><title>2023-10-14: 1</title></rect>
<rect fill="#c6e48b" width="10" height="10" y="60" x="516"><title>2023-10-13: 1</title></rect>
<rect fill="#c6e48b" width="10" height="10" y="48" x="516"><title>2023-10-12: 1</title></rect>
<rect fill="#a6dc6b" width="10" height="10" y="36" x="516"><title>2023-10-11: 12</title></rect>
<rect fill="#bfe283" width="10" height="10" y="24" x="516"><title>2023-10-10: 4</title></rect>
<rect fill="#c6e48b" width="10" height="10" y="12" x="516"><title>2023-10-09: 3</title></rect>
<rect fill="#ffaaaa" width="10" height="10" y="0" x="516"><title>2023-10-08: 0</title></rect>
<rect fill="#b7e07b" width="10" height="10" y="72" x="504"><title>2023-10-07: 8</title></rect>
<rect fill="#c6e48b" width="10" height="10" y="60" x="504"><title>2023-10-06: 1</title></rect>
<rect fill="#c6e48b" width="10" height="10" y="48" x="504"><title>2023-10-05: 2</title></rect>
<rect fill="#c6e48b" width="10" height="10" y="36" x="504"><title>2023-10-04: 1</title></rect>
<rect fill="#aede73" width="10" height="10" y="24" x="504"><title>2023-10-03: 9</title></rect>
<rect fill="#b7e07b" width="10" height="10" y="12" x="504"><title>2023-10-02: 8</title></rect>
<rect fill="#c6e48b" width="10" height="10" y="0" x="504"><title>2023-10-01: 2</title></rect>
<rect fill="#ffaaaa" width="10" height="10" y="72" x="492"><title>2023-09-30: 0</title></rect>
<rect fill="#c6e48b" width="10" height="10" y="60" x="492"><title>2023-09-29: 2</title></rect>
<rect fill="#c6e48b" width="10" height="10" y="48" x="492"><title>2023-09-28: 3</title></rect>
<rect fill="#bfe283" width="10" height="10" y="36" x="492"><title>2023-09-27: 6</title></rect>
<rect fill="#bfe283" width="10" height="10" y="24" x="492"><title>2023-09-26: 4</title></rect>
<rect fill="#a6dc6b" width="10" height="10" y="12" x="492"><title>2023-09-25: 12</title></rect>
<rect fill="#c6e48b" width="10" height="10" y="0" x="492"><title>2023-09-24: 1</title></rect>
<rect fill="#ffaaaa" width="10" height="10" y="72" x="480"><title>2023-09-23: 0</title></rect>
<rect fill="#c6e48b" width="10" height="10" y="60" x="480"><title>2023-09-22: 2</title></rect>
<rect fill="#c6e48b" width="10" height="10" y="48" x="480"><title>2023-09-21: 3</title></rect>
<rect fill="#bfe283" width="10" height="10" y="36" x="480"><title>2023-09-20: 5</title></rect>
<rect fill="#a6dc6b" width="10" height="10" y="24" x="480"><title>2023-09-19: 13</title></rect>
<rect fill="#c6e48b" width="10" height="10" y="12" x="480"><title>2023-09-18: 2</title></rect>
<rect fill="#c6e48b" width="10" height="10" y="0" x="480"><title>2023-09-17: 1</title></rect>
<rect fill="#bfe283" width="10" height="10" y="72" x="468"><title>2023-09-16: 4</title></rect>
<rect fill="#aede73" width="10" height="10" y="60" x="468"><title>2023-09-15: 10</title></rect>
<rect fill="#ffaaaa" width="10" height="10" y="48" x="468"><title>2023-09-14: 0</title></rect>
<rect fill="#c6e48b" width="10" height="10" y="36" x="468"><title>2023-09-13: 1</title></rect>
<rect fill="#ffaaaa" width="10" height="10" y="24" x="468"><title>2023-09-12: 0</title></rect>
<rect fill="#bfe283" width="10" height="10" y="12" x="468"><title>2023-09-11: 4</title></rect>
<rect fill="#aede73" width="10" height="10" y="0" x="468"><title>2023-09-10: 9</title></rect>
<rect fill="#a6dc6b" width="10" height="10" y="72" x="456"><title>2023-09-09: 13</title></rect>
<rect fill="#bfe283" width="10" height="10" y="60" x="456"><title>2023-09-08: 4</title></rect>
<rect fill="#bfe283" width="10" height="10" y="48" x="456"><title>2023-09-07: 4</title></rect>
<rect fill="#bfe283" width="10" height="10" y="36" x="456"><title>2023-09-06: 4</title></rect>
<rect fill="#ffaaaa" width="10" height="10" y="24" x="456"><title>2023-09-05: 0</title></rect>
<rect fill="#c6e48b" width="10" height="10" y="12" x="456"><title>2023-09-04: 2</title></rect>
<rect fill="#c6e48b" width="10" height="10" y="0" x="456"><title>2023-09-03: 2</title></rect>
<rect fill="#a6dc6b" width="10" height="10" y="72" x="444"><title>2023-09-02: 12</title></rect>
<rect fill="#93d75b" width="10" height="10" y="60" x="444"><title>2023-09-01: 19</title></rect>
<rect fill="#ffaaaa" width="10" height="10" y="48" x="444"><title>2023-08-31: 0</title></rect>
<rect fill="#b7e07b" width="10" height="10" y="36" x="444"><title>2023-08-30: 7</title></rect>
<rect fill="#c6e48b" width="10" height="10" y="24" x="444"><title>2023-08-29: 2</title></rect>
<rect fill="#5ecc34" width="10" height="10" y="12" x="444"><title>2023-08-28: 31</title></rect>
<rect fill="#c6e48b" width="10" height="10" y="0" x="444"><title>2023-08-27: 2</title></rect>
<rect fill="#9dd963" width="10" height="10" y="72" x="432"><title>2023-08-26: 15</title></rect>
<rect fill="#a6dc6b" width="10" height="10" y="60" x="432"><title>2023-08-25: 12</title></rect>
<rect fill="#c6e48b" width="10" height="10" y="48" x="432"><title>2023-08-24: 1</title></rect>
<rect fill="#bfe283" width="10" height="10" y="36" x="432"><title>2023-08-23: 5</title></rect>
<rect fill="#4dbc30" width="10" height="10" y="24" x="432"><title>2023-08-22: 37</title></rect>
<rect fill="#4dbc30" width="10" height="10" y="12" x="432"><title>2023-08-21: 38</title></rect>
<rect fill="#b7e07b" width="10" height="10" y="0" x="432"><title>2023-08-20: 8</title></rect>
<rect fill="#bfe283" width="10" height="10" y="72" x="420"><title>2023-08-19: 6</title></rect>
<rect fill="#ffaaaa" width="10" height="10" y="60" x="420"><title>2023-08-18: 0</title></rect>
<rect fill="#bfe283" width="10" height="10" y="48" x="420"><title>2023-08-17: 6</title></rect>
<rect fill="#aede73" width="10" height="10" y="36" x="420"><title>2023-08-16: 9</title></rect>
<rect fill="#c6e48b" width="10" height="10" y="24" x="420"><title>2023-08-15: 1</title></rect>
<rect fill="#c6e48b" width="10" height="10" y="12" x="420"><title>2023-08-14: 1</title></rect>
<rect fill="#55c432" width="10" height="10" y="0" x="420"><title>2023-08-13: 34</title></rect>
<rect fill="#9dd963" width="10" height="10" y="72" x="408"><title>2023-08-12: 16</title></rect>
<rect fill="#a6dc6b" width="10" height="10" y="60" x="408"><title>2023-08-11: 12</title></rect>
<rect fill="#c6e48b" width="10" height="10" y="48" x="408"><title>2023-08-10: 3</title></rect>
<rect fill="#a6dc6b" width="10" height="10" y="36" x="408"><title>2023-08-09: 14</title></rect>
<rect fill="#c6e48b" width="10" height="10" y="24" x="408"><title>2023-08-08: 3</title></rect>
<rect fill="#bfe283" width="10" height="10" y="12" x="408"><title>2023-08-07: 4</title></rect>
<rect fill="#aede73" width="10" height="10" y="0" x="408"><title>2023-08-06: 11</title></rect>
<rect fill="#b7e07b" width="10" height="10" y="72" x="396"><title>2023-08-05: 7</title></rect>
<rect fill="#c6e48b" width="10" height="10" y="60" x="396"><title>2023-08-04: 1</title></rect>
<rect fill="#c6e48b" width="10" height="10" y="48" x="396"><title>2023-08-03: 3</title></rect>
<rect fill="#bfe283" width="10" height="10" y="36" x="396"><title>2023-08-02: 4</title></rect>
<rect fill="#c6e48b" width="10" height="10" y="24" x="396"><title>2023-08-01: 1</title></rect>
<rect fill="#a6dc6b" width="10" height="10" y="12" x="396"><title>2023-07-31: 14</title></rect>
<rect fill="#74d044" width="10" height="10" y="0" x="396"><title>2023-07-30: 25</title></rect>
<rect fill="#bfe283" width="10" height="10" y="72" x="384"><title>2023-07-29: 5</title></rect>
<rect fill="#b7e07b" width="10" height="10" y="60" x="384"><title>2023-07-28: 7</title></rect>
<rect fill="#a6dc6b" width="10" height="10" y="48" x="384"><title>2023-07-27: 14</title></rect>
<rect fill="#b7e07b" width="10" height="10" y="36" x="384"><title>2023-07-26: 7</title></rect>
<rect fill="#b7e07b" width="10" height="10" y="24" x="384"><title>2023-07-25: 8</title></rect>
<rect fill="#a6dc6b" width="10" height="10" y="12" x="384"><title>2023-07-24: 12</title></rect>
<rect fill="#a6dc6b" width="10" height="10" y="0" x="384"><title>2023-07-23: 13</title></rect>
<rect fill="#89d553" width="10" height="10" y="72" x="372"><title>2023-07-22: 22</title></rect>
<rect fill="#9dd963" width="10" height="10" y="60" x="372"><title>2023-07-21: 15</title></rect>
<rect fill="#9dd963" width="10" height="10" y="48" x="372"><title>2023-07-20: 15</title></rect>
<rect fill="#a6dc6b" width="10" height="10" y="36" x="372"><title>2023-07-19: 12</title></rect>
<rect fill="#74d044" width="10" height="10" y="24" x="372"><title>2023-07-18: 25</title></rect>
<rect fill="#69ce3c" width="10" height="10" y="12" x="372"><title>2023-07-17: 28</title></rect>
<rect fill="#69ce3c" width="10" height="10" y="0" x="372"><title>2023-07-16: 28</title></rect>
<rect fill="#aede73" width="10" height="10" y="72" x="360"><title>2023-07-15: 9</title></rect>
<rect fill="#7fd34c" width="10" height="10" y="60" x="360"><title>2023-07-14: 23</title></rect>
<rect fill="#c6e48b" width="10" height="10" y="48" x="360"><title>2023-07-13: 1</title></rect>
<rect fill="#69ce3c" width="10" height="10" y="36" x="360"><title>2023-07-12: 30</title></rect>
<rect fill="#89d553" width="10" height="10" y="24" x="360"><title>2023-07-11: 22</title></rect>
<rect fill="#89d553" width="10" height="10" y="12" x="360"><title>2023-07-10: 22</title></rect>
<rect fill="#1b6228" width="10" height="10" y="0" x="360"><title>2023-07-09: 65</title></rect>
<rect fill="#5ecc34" width="10" height="10" y="72" x="348"><title>2023-07-08: 31</title></rect>
<rect fill="#a6dc6b" width="10" height="10" y="60" x="348"><title>2023-07-07: 13</title></rect>
<rect fill="#a6dc6b" width="10" height="10" y="48" x="348"><title>2023-07-06: 13</title></rect>
<rect fill="#c6e48b" width="10" height="10" y="36" x="348"><title>2023-07-05: 3</title></rect>
<rect fill="#a6dc6b" width="10" height="10" y="24" x="348"><title>2023-07-04: 13</title></rect>
<rect fill="#ffaaaa" width="10" height="10" y="12" x="348"><title>2023-07-03: 0</title></rect>
<rect fill="#aede73" width="10" height="10" y="0" x="348"><title>2023-07-02: 11</title></rect>
<rect fill="#c6e48b" width="10" height="10" y="72" x="336"><title>2023-07-01: 1</title></rect>
<rect fill="#ffaaaa" width="10" height="10" y="60" x="336"><title>2023-06-30: 0</title></rect>
<rect fill="#ffaaaa" width="10" height="10" y="48" x="336"><title>2023-06-29: 0</title></rect>
<rect fill="#bfe283" width="10" height="10" y="36" x="336"><title>2023-06-28: 5</title></rect>
<rect fill="#bfe283" width="10" height="10" y="24" x="336"><title>2023-06-27: 5</title></rect>
<rect fill="#c6e48b" width="10" height="10" y="12" x="336"><title>2023-06-26: 1</title></rect>
<rect fill="#ffaaaa" width="10" height="10" y="0" x="336"><title>2023-06-25: 0</title></rect>
<rect fill="#aede73" width="10" height="10" y="72" x="324"><title>2023-06-24: 9</title></rect>
<rect fill="#aede73" width="10" height="10" y="60" x="324"><title>2023-06-23: 9</title></rect>
<rect fill="#c6e48b" width="10" height="10" y="48" x="324"><title>2023-06-22: 2</title></rect>
<rect fill="#74d044" width="10" height="10" y="36" x="324"><title>2023-06-21: 25</title></rect>
<rect fill="#bfe283" width="10" height="10" y="24" x="324"><title>2023-06-20: 4</title></rect>
<rect fill="#93d75b" width="10" height="10" y="12" x="324"><title>2023-06-19: 18</title></rect>
<rect fill="#aede73" width="10" height="10" y="0" x="324"><title>2023-06-18: 9</title></rect>
<rect fill="#238227" width="10" height="10" y="72" x="312"><title>2023-06-17: 55</title></rect>
<rect fill="#b7e07b" width="10" height="10" y="60" x="312"><title>2023-06-16: 8</title></rect>
<rect fill="#b7e07b" width="10" height="10" y="48" x="312"><title>2023-06-15: 7</title></rect>
<rect fill="#aede73" width="10" height="10" y="36" x="312"><title>2023-06-14: 10</title></rect>
<rect fill="#ffaaaa" width="10" height="10" y="24" x="312"><title>2023-06-13: 0</title></rect>
<rect fill="#ffaaaa" width="10" height="10" y="12" x="312"><title>2023-06-12: 0</title></rect>
<rect fill="#ffaaaa" width="10" height="10" y="0" x="312"><title>2023-06-11: 0</title></rect>
<rect fill="#ffaaaa" width="10" height="10" y="72" x="300"><title>2023-06-10: 0</title></rect>
<rect fill="#ffaaaa" width="10" height="10" y="60" x="300"><title>2023-06-09: 0</title></rect>
<rect fill="#bfe283" width="10" height="10" y="48" x="300"><title>2023-06-08: 6</title></rect>
<rect fill="#c6e48b" width="10" height="10" y="36" x="300"><title>2023-06-07: 2</title></rect>
<rect fill="#ffaaaa" width="10" height="10" y="24" x="300"><title>2023-06-06: 0</title></rect>
<rect fill="#aede73" width="10" height="10" y="12" x="300"><title>2023-06-05: 9</title></rect>
<rect fill="#ffaaaa" width="10" height="10" y="0" x="300"><title>2023-06-04: 0</title></rect>
<rect fill="#ffaaaa" width="10" height="10" y="72" x="288"><title>2023-06-03: 0</title></rect>
<rect fill="#c6e48b" width="10" height="10" y="60" x="288"><title>2023-06-02: 2</title></rect>
<rect fill="#c6e48b" width="10" height="10" y="48" x="288"><title>2023-06-01: 2</title></rect>
<rect fill="#c6e48b" width="10" height="10" y="36" x="288"><title>2023-05-31: 1</title></rect>
<rect fill="#bfe283" width="10" height="10" y="24" x="288"><title>2023-05-30: 6</title></rect>
<rect fill="#bfe283" width="10" height="10" y="12" x="288"><title>2023-05-29: 4</title></rect>
<rect fill="#a6dc6b" width="10" height="10" y="0" x="288"><title>2023-05-28: 12</title></rect>
<rect fill="#c6e48b" width="10" height="10" y="72" x="276"><title>2023-05-27: 1</title></rect>
<rect fill="#c6e48b" width="10" height="10" y="60" x="276"><title>2023-05-26: 1</title></rect>
<rect fill="#ffaaaa" width="10" height="10" y="48" x="276"><title>2023-05-25: 0</title></rect>
<rect fill="#a6dc6b" width="10" height="10" y="36" x="276"><title>2023-05-24: 12</title></rect>
<rect fill="#a6dc6b" width="10" height="10" y="24" x="276"><title>2023-05-23: 13</title></rect>
<rect fill="#69ce3c" width="10" height="10" y="12" x="276"><title>2023-05-22: 30</title></rect>
<rect fill="#a6dc6b" width="10" height="10" y="0" x="276"><title>2023-05-21: 13</title></rect>
<rect fill="#bfe283" width="10" height="10" y="72" x="264"><title>2023-05-20: 6</title></rect>
<rect fill="#89d553" width="10" height="10" y="60" x="264"><title>2023-05-19: 22</title></rect>
<rect fill="#89d553" width="10" height="10" y="48" x="264"><title>2023-05-18: 22</title></rect>
<rect fill="#a6dc6b" width="10" height="10" y="36" x="264"><title>2023-05-17: 14</title></rect>
<rect fill="#bfe283" width="10" height="10" y="24" x="264"><title>2023-05-16: 4</title></rect>
<rect fill="#c6e48b" width="10" height="10" y="12" x="264"><title>2023-05-15: 2</title></rect>
<rect fill="#c6e48b" width="10" height="10" y="0" x="264"><title>2023-05-14: 3</title></rect>
<rect fill="#a6dc6b" width="10" height="10" y="72" x="252"><title>2023-05-13: 13</title></rect>
<rect fill="#ffaaaa" width="10" height="10" y="60" x="252"><title>2023-05-12: 0</title></rect>
<rect fill="#74d044" width="10" height="10" y="48" x="252"><title>2023-05-11: 27</title></rect>
<rect fill="#aede73" width="10" height="10" y="36" x="252"><title>2023-05-10: 9</title></rect>
<rect fill="#b7e07b" width="10" height="10" y="24" x="252"><title>2023-05-09: 8</title></rect>
<rect fill="#bfe283" width="10" height="10" y="12" x="252"><title>2023-05-08: 6</title></rect>
<rect fill="#c6e48b" width="10" height="10" y="0" x="252"><title>2023-05-07: 1</title></rect>
<rect fill="#ffaaaa" width="10" height="10" y="72" x="240"><title>2023-05-06: 0</title></rect>
<rect fill="#c6e48b" width="10" height="10" y="60" x="240"><title>2023-05-05: 3</title></rect>
<rect fill="#ffaaaa" width="10" height="10" y="48" x="240"><title>2023-05-04: 0</title></rect>
<rect fill="#c6e48b" width="10" height="10" y="36" x="240"><title>2023-05-03: 1</title></rect>
<rect fill="#bfe283" width="10" height="10" y="24" x="240"><title>2023-05-02: 4</title></rect>
<rect fill="#b7e07b" width="10" height="10" y="12" x="240"><title>2023-05-01: 7</title></rect>
<rect fill="#bfe283" width="10" height="10" y="0" x="240"><title>2023-04-30: 4</title></rect>
<rect fill="#c6e48b" width="10" height="10" y="72" x="228"><title>2023-04-29: 1</title></rect>
<rect fill="#89d553" width="10" height="10" y="60" x="228"><title>2023-04-28: 20</title></rect>
<rect fill="#bfe283" width="10" height="10" y="48" x="228"><title>2023-04-27: 6</title></rect>
<rect fill="#c6e48b" width="10" height="10" y="36" x="228"><title>2023-04-26: 2</title></rect>
<rect fill="#bfe283" width="10" height="10" y="24" x="228"><title>2023-04-25: 6</title></rect>
<rect fill="#c6e48b" width="10" height="10" y="12" x="228"><title>2023-04-24: 2</title></rect>
<rect fill="#ffaaaa" width="10" height="10" y="0" x="228"><title>2023-04-23: 0</title></rect>
<rect fill="#c6e48b" width="10" height="10" y="72" x="216"><title>2023-04-22: 3</title></rect>
<rect fill="#b7e07b" width="10" height="10" y="60" x="216"><title>2023-04-21: 7</title></rect>
<rect fill="#c6e48b" width="10" height="10" y="48" x="216"><title>2023-04-20: 3</title></rect>
<rect fill="#93d75b" width="10" height="10" y="36" x="216"><title>2023-04-19: 17</title></rect>
<rect fill="#c6e48b" width="10" height="10" y="24" x="216"><title>2023-04-18: 1</title></rect>
<rect fill="#c6e48b" width="10" height="10" y="12" x="216"><title>2023-04-17: 3</title></rect>
<rect fill="#aede73" width="10" height="10" y="0" x="216"><title>2023-04-16: 10</title></rect>
<rect fill="#c6e48b" width="10" height="10" y="72" x="204"><title>2023-04-15: 1</title></rect>
<rect fill="#bfe283" width="10" height="10" y="60" x="204"><title>2023-04-14: 6</title></rect>
<rect fill="#c6e48b" width="10" height="10" y="48" x="204"><title>2023-04-13: 2</title></rect>
<rect fill="#ffaaaa" width="10" height="10" y="36" x="204"><title>2023-04-12: 0</title></rect>
<rect fill="#c6e48b" width="10" height="10" y="24" x="204"><title>2023-04-11: 3</title></rect>
<rect fill="#bfe283" width="10" height="10" y="12" x="204"><title>2023-04-10: 4</title></rect>
<rect fill="#bfe283" width="10" height="10" y="0" x="204"><title>2023-04-09: 6</title></rect>
<rect fill="#89d553" width="10" height="10" y="72" x="192"><title>2023-04-08: 20</title></rect>
<rect fill="#c6e48b" width="10" height="10" y="60" x="192"><title>2023-04-07: 2</title></rect>
<rect fill="#c6e48b" width="10" height="10" y="48" x="192"><title>2023-04-06: 1</title></rect>
<rect fill="#b7e07b" width="10" height="10" y="36" x="192"><title>2023-04-05: 8</title></rect>
<rect fill="#bfe283" width="10" height="10" y="24" x="192"><title>2023-04-04: 6</title></rect>
<rect fill="#bfe283" width="10" height="10" y="12" x="192"><title>2023-04-03: 4</title></rect>
<rect fill="#c6e48b" width="10" height="10" y="0" x="192"><title>2023-04-02: 3</title></rect>
<rect fill="#bfe283" width="10" height="10" y="72" x="180"><title>2023-04-01: 4</title></rect>
<rect fill="#ffaaaa" width="10" height="10" y="60" x="180"><title>2023-03-31: 0</title></rect>
<rect fill="#c6e48b" width="10" height="10" y="48" x="180"><title>2023-03-30: 3</title></rect>
<rect fill="#ffaaaa" width="10" height="10" y="36" x="180"><title>2023-03-29: 0</title></rect>
<rect fill="#c6e48b" width="10" height="10" y="24" x="180"><title>2023-03-28: 1</title></rect>
<rect fill="#c6e48b" width="10" height="10" y="12" x="180"><title>2023-03-27: 1</title></rect>
<rect fill="#ffaaaa" width="10" height="10" y="0" x="180"><title>2023-03-26: 0</title></rect>
<rect fill="#c6e48b" width="10" height="10" y="72" x="168"><title>2023-03-25: 2</title></rect>
<rect fill="#ffaaaa" width="10" height="10" y="60" x="168"><title>2023-03-24: 0</title></rect>
<rect fill="#bfe283" width="10" height="10" y="48" x="168"><title>2023-03-23: 4</title></rect>
<rect fill="#c6e48b" width="10" height="10" y="36" x="168"><title>2023-03-22: 1</title></rect>
<rect fill="#c6e48b" width="10" height="10" y="24" x="168"><title>2023-03-21: 1</title></rect>
<rect fill="#ffaaaa" width="10" height="10" y="12" x="168"><title>2023-03-20: 0</title></rect>
<rect fill="#ffaaaa" width="10" height="10" y="0" x="168"><title>2023-03-19: 0</title></rect>
<rect fill="#c6e48b" width="10" height="10" y="72" x="156"><title>2023-03-18: 1</title></rect>
<rect fill="#bfe283" width="10" height="10" y="60" x="156"><title>2023-03-17: 4</title></rect>
<rect fill="#a6dc6b" width="10" height="10" y="48" x="156"><title>2023-03-16: 12</title></rect>
<rect fill="#bfe283" width="10" height="10" y="36" x="156"><title>2023-03-15: 5</title></rect>
<rect fill="#9dd963" width="10" height="10" y="24" x="156"><title>2023-03-14: 15</title></rect>
<rect fill="#c6e48b" width="10" height="10" y="12" x="156"><title>2023-03-13: 1</title></rect>
<rect fill="#ffaaaa" width="10" height="10" y="0" x="156"><title>2023-03-12: 0</title></rect>
<rect fill="#ffaaaa" width="10" height="10" y="72" x="144"><title>2023-03-11: 0</title></rect>
<rect fill="#c6e48b" width="10" height="10" y="60" x="144"><title>2023-03-10: 2</title></rect>
<rect fill="#c6e48b" width="10" height="10" y="48" x="144"><title>2023-03-09: 2</title></rect>
<rect fill="#c6e48b" width="10" height="10" y="36" x="144"><title>2023-03-08: 1</title></rect>
<rect fill="#c6e48b" width="10" height="10" y="24" x="144"><title>2023-03-07: 1</title></rect>
<rect fill="#c6e48b" width="10" height="10" y="12" x="144"><title>2023-03-06: 1</title></rect>
<rect fill="#bfe283" width="10" height="10" y="0" x="144"><title>2023-03-05: 4</title></rect>
<rect fill="#c6e48b" width="10" height="10" y="72" x="132"><title>2023-03-04: 1</title></rect>
<rect fill="#bfe283" width="10" height="10" y="60" x="132"><title>2023-03-03: 4</title></rect>
<rect fill="#c6e48b" width="10" height="10" y="48" x="132"><title>2023-03-02: 2</title></rect>
<rect fill="#a6dc6b" width="10" height="10" y="36" x="132"><title>2023-03-01: 12</title></rect>
<rect fill="#c6e48b" width="10" height="10" y="24" x="132"><title>2023-02-28: 3</title></rect>
<rect fill="#ffaaaa" width="10" height="10" y="12" x="132"><title>2023-02-27: 0</title></rect>
<rect fill="#bfe283" width="10" height="10" y="0" x="132"><title>2023-02-26: 5</title></rect>
<rect fill="#aede73" width="10" height="10" y="72" x="120"><title>2023-02-25: 10</title></rect>
<rect fill="#bfe283" width="10" height="10" y="60" x="120"><title>2023-02-24: 5</title></rect>
<rect fill="#b7e07b" width="10" height="10" y="48" x="120"><title>2023-02-23: 8</title></rect>
<rect fill="#c6e48b" width="10" height="10" y="36" x="120"><title>2023-02-22: 1</title></rect>
<rect fill="#c6e48b" width="10" height="10" y="24" x="120"><title>2023-02-21: 1</title></rect>
<rect fill="#a6dc6b" width="10" height="10" y="12" x="120"><title>2023-02-20: 12</title></rect>
<rect fill="#89d553" width="10" height="10" y="0" x="120"><title>2023-02-19: 22</title></rect>
<rect fill="#89d553" width="10" height="10" y="72" x="108"><title>2023-02-18: 20</title></rect>
<rect fill="#aede73" width="10" height="10" y="60" x="108"><title>2023-02-17: 11</title></rect>
<rect fill="#c6e48b" width="10" height="10" y="48" x="108"><title>2023-02-16: 3</title></rect>
<rect fill="#ffaaaa" width="10" height="10" y="36" x="108"><title>2023-02-15: 0</title></rect>
<rect fill="#c6e48b" width="10" height="10" y="24" x="108"><title>2023-02-14: 1</title></rect>
<rect fill="#c6e48b" width="10" height="10" y="12" x="108"><title>2023-02-13: 1</title></rect>
<rect fill="#ffaaaa" width="10" height="10" y="0" x="108"><title>2023-02-12: 0</title></rect>
<rect fill="#ffaaaa" width="10" height="10" y="72" x="96"><title>2023-02-11: 0</title></rect>
<rect fill="#c6e48b" width="10" height="10" y="60" x="96"><title>2023-02-10: 1</title></rect>
<rect fill="#bfe283" width="10" height="10" y="48" x="96"><title>2023-02-09: 6</title></rect>
<rect fill="#c6e48b" width="10" height="10" y="36" x="96"><title>2023-02-08: 2</title></rect>
<rect fill="#b7e07b" width="10" height="10" y="24" x="96"><title>2023-02-07: 7</title></rect>
<rect fill="#b7e07b" width="10" height="10" y="12" x="96"><title>2023-02-06: 8</title></rect>
<rect fill="#c6e48b" width="10" height="10" y="0" x="96"><title>2023-02-05: 2</title></rect>
<rect fill="#c6e48b" width="10" height="10" y="72" x="84"><title>2023-02-04: 3</title></rect>
<rect fill="#c6e48b" width="10" height="10" y="60" x="84"><title>2023-02-03: 2</title></rect>
<rect fill="#bfe283" width="10" height="10" y="48" x="84"><title>2023-02-02: 4</title></rect>
<rect fill="#b7e07b" width="10" height="10" y="36" x="84"><title>2023-02-01: 8</title></rect>
<rect fill="#c6e48b" width="10" height="10" y="24" x="84"><title>2023-01-31: 3</title></rect>
<rect fill="#c6e48b" width="10" height="10" y="12" x="84"><title>2023-01-30: 1</title></rect>
<rect fill="#c6e48b" width="10" height="10" y="0" x="84"><title>2023-01-29: 1</title></rect>
<rect fill="#ffaaaa" width="10" height="10" y="72" x="72"><title>2023-01-28: 0</title></rect>
<rect fill="#c6e48b" width="10" height="10" y="60" x="72"><title>2023-01-27: 1</title></rect>
<rect fill="#ffaaaa" width="10" height="10" y="48" x="72"><title>2023-01-26: 0</title></rect>
<rect fill="#c6e48b" width="10" height="10" y="36" x="72"><title>2023-01-25: 2</title></rect>
<rect fill="#ffaaaa" width="10" height="10" y="24" x="72"><title>2023-01-24: 0</title></rect>
<rect fill="#c6e48b" width="10" height="10" y="12" x="72"><title>2023-01-23: 3</title></rect>
<rect fill="#a6dc6b" width="10" height="10" y="0" x="72"><title>2023-01-22: 12</title></rect>
<rect fill="#bfe283" width="10" height="10" y="72" x="60"><title>2023-01-21: 6</title></rect>
<rect fill="#aede73" width="10" height="10" y="60" x="60"><title>2023-01-20: 11</title></rect>
<rect fill="#b7e07b" width="10" height="10" y="48" x="60"><title>2023-01-19: 7</title></rect>
<rect fill="#bfe283" width="10" height="10" y="36" x="60"><title>2023-01-18: 6</title></rect>
<rect fill="#c6e48b" width="10" height="10" y="24" x="60"><title>2023-01-17: 1</title></rect>
<rect fill="#9dd963" width="10" height="10" y="12" x="60"><title>2023-01-16: 16</title></rect>
<rect fill="#bfe283" width="10" height="10" y="0" x="60"><title>2023-01-15: 5</title></rect>
<rect fill="#69ce3c" width="10" height="10" y="72" x="48"><title>2023-01-14: 29</title></rect>
<rect fill="#a6dc6b" width="10" height="10" y="60" x="48"><title>2023-01-13: 12</title></rect>
<rect fill="#74d044" width="10" height="10" y="48" x="48"><title>2023-01-12: 27</title></rect>
<rect fill="#ffaaaa" width="10" height="10" y="36" x="48"><title>2023-01-11: 0</title></rect>
<rect fill="#aede73" width="10" height="10" y="24" x="48"><title>2023-01-10: 10</title></rect>
<rect fill="#a6dc6b" width="10" height="10" y="12" x="48"><title>2023-01-09: 12</title></rect>
<rect fill="#a6dc6b" width="10" height="10" y="0" x="48"><title>2023-01-08: 13</title></rect>
<rect fill="#aede73" width="10" height="10" y="72" x="36"><title>2023-01-07: 10</title></rect>
<rect fill="#69ce3c" width="10" height="10" y="60" x="36"><title>2023-01-06: 29</title></rect>
<rect fill="#bfe283" width="10" height="10" y="48" x="36"><title>2023-01-05: 4</title></rect>
<rect fill="#ffaaaa" width="10" height="10" y="36" x="36"><title>2023-01-04: 0</title></rect>
<rect fill="#ffaaaa" width="10" height="10" y="24" x="36"><title>2023-01-03: 0</title></rect>
<rect fill="#ffaaaa" width="10" height="10" y="12" x="36"><title>2023-01-02: 0</title></rect>
<rect fill="#ffaaaa" width="10" height="10" y="0" x="36"><title>2023-01-01: 0</title></rect>
<rect fill="#c6e48b" width="10" height="10" y="72" x="24"><title>2022-12-31: 2</title></rect>
<rect fill="#ffaaaa" width="10" height="10" y="60" x="24"><title>2022-12-30: 0</title></rect>
<rect fill="#ffaaaa" width="10" height="10" y="48" x="24"><title>2022-12-29: 0</title></rect>
<rect fill="#ffaaaa" width="10" height="10" y="36" x="24"><title>2022-12-28: 0</title></rect>
<rect fill="#ffaaaa" width="10" height="10" y="24" x="24"><title>2022-12-27: 0</title></rect>
<rect fill="#ffaaaa" width="10" height="10" y="12" x="24"><title>2022-12-26: 0</title></rect>
<rect fill="#ffaaaa" width="10" height="10" y="0" x="24"><title>2022-12-25: 0</title></rect>
<rect fill="#ffaaaa" width="10" height="10" y="72" x="12"><title>2022-12-24: 0</title></rect>
<rect fill="#ffaaaa" width="10" height="10" y="60" x="12"><title>2022-12-23: 0</title></rect>
<rect fill="#ffaaaa" width="10" height="10" y="48" x="12"><title>2022-12-22: 0</title></rect>
<rect fill="#c6e48b" width="10" height="10" y="36" x="12"><title>2022-12-21: 1</title></rect>
<rect fill="#bfe283" width="10" height="10" y="24" x="12"><title>2022-12-20: 4</title></rect>
<rect fill="#bfe283" width="10" height="10" y="12" x="12"><title>2022-12-19: 4</title></rect>
<rect fill="#c6e48b" width="10" height="10" y="0" x="12"><title>2022-12-18: 1</title></rect>
<rect fill="#c6e48b" width="10" height="10" y="72" x="0"><title>2022-12-17: 1</title></rect>
<rect fill="#c6e48b" width="10" height="10" y="60" x="0"><title>2022-12-16: 1</title></rect>
<rect fill="#ffaaaa" width="10" height="10" y="48" x="0"><title>2022-12-15: 0</title></rect>
<rect fill="#c6e48b" width="10" height="10" y="36" x="0"><title>2022-12-14: 3</title></rect>
<rect fill="#ffaaaa" width="10" height="10" y="24" x="0"><title>2022-12-13: 0</title></rect>
<rect fill="#ffaaaa" width="10" height="10" y="12" x="0"><title>2022-12-12: 0</title></rect>
</svg>